<svg width="17" height="19" viewBox="0 0 17 19" fill="none" xmlns="http://www.w3.org/2000/svg">
<path d="M15.1667 18.5H1.83334C1.09696 18.5 0.5 17.9482 0.5 17.2674C0.5 15.2287 1.86827 13.4039 3.93344 12.6884L4.34346 12.5463C7.02346 11.6178 9.97654 11.6178 12.6565 12.5463L13.0666 12.6884C15.1317 13.4039 16.5 15.2287 16.5 17.2674C16.5 17.9482 15.903 18.5 15.1667 18.5Z" stroke="#163152" stroke-linecap="square" stroke-linejoin="round"/>
<path d="M6.46715 8.90685C7.74313 9.51275 9.25687 9.51275 10.5328 8.90685C11.7204 8.34296 12.5712 7.31591 12.8505 6.10911L12.9251 5.78703C13.2107 4.55295 12.9056 3.26495 12.0881 2.25419L11.9684 2.10617C11.1508 1.09527 9.86541 0.5 8.5 0.5C7.13459 0.5 5.84915 1.09527 5.03157 2.10617L4.91186 2.25419C4.09439 3.26495 3.78926 4.55295 4.07492 5.78703L4.14947 6.10911C4.42882 7.31591 5.27964 8.34296 6.46715 8.90685Z" stroke="#163152" stroke-linecap="square" stroke-linejoin="round"/>
</svg>
